<?xml version="1.0" encoding="UTF-8" standalone="no"?><!DOCTYPE svg PUBLIC "-//W3C//DTD SVG 1.1//EN" "http://www.w3.org/Graphics/SVG/1.1/DTD/svg11.dtd"><svg width="100%" height="100%" viewBox="0 0 280 280" version="1.1" xmlns="http://www.w3.org/2000/svg" xmlns:xlink="http://www.w3.org/1999/xlink" xml:space="preserve" xmlns:serif="http://www.serif.com/" style="fill-rule:evenodd;clip-rule:evenodd;stroke-linecap:round;stroke-linejoin:round;stroke-miterlimit:1.5;"><rect id="Afternoon" x="0" y="0" width="280" height="280" style="fill:url(#_Linear1);"/><path d="M248.968,15.768c4.871,10.463 -3.305,27.901 -16.203,47.865l-24.081,10.159l22.897,-6.831c-3.924,6.358 -15.536,22.107 -19.974,25.202c-10.92,4.603 -18.529,4.802 -25.749,5.209l-0.113,-0.016c6.332,1.499 13.296,1.727 21.967,-1.119c-3.925,6.358 -12.027,23.411 -18.09,24.207c-12.334,1.619 -20.269,-4.102 -27.425,-4.484l-1.696,1.797c11.086,4.754 21.391,4.567 28.771,5.14c-5.756,7.496 -9.242,9.303 -14.964,13.77c-4.939,3.855 -19.188,1.695 -25.269,-1.962l-0.05,-0.028c3.531,5.319 10.855,6.654 23.711,5.59c-5.371,3.58 -17.994,15.919 -22.498,16.567c-10.615,1.527 -19.001,-2.905 -22.819,-7.658l-0.932,0c4.903,9.725 21.381,11.203 27.975,11.645c-6.809,1.504 -20.355,1.385 -29.348,-9.477l-0.765,0.854c4.983,7.13 10.597,10.911 24.755,11.206c-3.053,12.311 -30.087,18.578 -40.061,2.556l-1.479,1.486c0.018,0.032 0.192,0.384 0.21,0.416c4.757,8.455 10.912,12.007 22.784,11.801c-4.828,7.375 -12.524,12.15 -21.777,11.982c-5.164,-1.255 -8.956,-3.095 -10.137,-4.276c0.921,4.789 10.032,6.393 15.626,7.29c-3.822,7.247 -12.328,5.244 -17.234,3.803c-7.192,-2.113 -8.613,-2.878 -13.189,-7.478l-0.784,1.123c3.3,6.373 8.863,10.941 18.14,16.995c-8.398,-2.166 -14.687,-5.759 -21.924,-12.987l-0.867,0.919c2.394,3.373 11.833,12.759 21.218,13.603c-3.387,5.772 -21.014,-1.584 -25.061,-2.412l11.543,7.219c-3.888,1.996 -11.106,-0.548 -17.499,-5.21c-0.152,2.686 8.865,5.533 14.055,12.116c-3.424,-2.592 -10.12,-3.875 -17.277,-4.403c8.044,3.383 8.087,3.79 10.245,5.536c-11.443,0.576 -12.058,4.12 -20.29,0.229l-0.228,-0.045c-1.434,0.705 -21.872,32.278 -21.983,34.862c-0.037,0.856 -0.522,1.948 0.11,2.837c-1.091,-0.117 -2.324,0.838 -3.601,2.123c40.263,-84.973 182.553,-172.471 219.36,-247.721c-8.121,-5.821 -23.385,4.253 -44.814,20.857c5.907,7.002 7.095,15.97 9.184,24.562c-3.327,-6.495 -6.662,-26.503 -11.68,-22.474c-2.024,1.625 -4.758,4.467 -5.005,8.458c-0.186,2.992 -1.268,12.132 -1.74,29.233l-0.257,-31.118c-10.669,8.984 -21.148,14.966 -26.582,22.503c-5.671,13.249 -6.521,29.549 -1.214,38.333c-0.173,-0.193 -0.341,-0.386 -0.505,-0.58c-6.04,-7.142 -6.014,-14.787 -4.395,-23.492c0.127,-0.681 2.027,-10.341 2.093,-10.725c-14.082,6.76 -30.521,29.312 -32.641,42.055c-1.49,8.955 3.511,21.516 6.555,24.715l0,0.286c-15.147,-12.303 -7.712,-38.245 -5.186,-38.647c0.041,-1.338 -24.369,23.564 -29.309,39.659c-3.892,12.681 -1.129,25.437 2.648,29.044l-0.503,0c-7.037,-8.385 -7.433,-19.607 -6.587,-31.747c-2.311,11.413 -4.82,23.997 0.867,37.598l-0.795,0.576c-7.365,-6.318 -3.697,-34.763 -2.817,-36.128c-4.325,5.699 -20.756,19.6 -25.363,35.138c-3.771,12.717 -1.417,24.395 2.359,28.002l-2.573,2.726l-7.385,-21.72c-3.083,-1.718 -5.18,15.97 -4.549,27.97l-4.078,-11.482c-3.203,11.258 -1.329,19.165 -0.686,25.349c45.529,-52.346 95.076,-95.229 136.937,-138.719c9.324,-9.688 20.412,-18.298 28.888,-28.243c11.483,-13.473 19.126,-28.504 29.133,-41.989Z" style="fill:#bdbdbd;stroke:#212121;stroke-width:2px;"/><defs><linearGradient id="_Linear1" x1="0" y1="0" x2="1" y2="0" gradientUnits="userSpaceOnUse" gradientTransform="matrix(280,0,0,280,0,140)"><stop offset="0" style="stop-color:#053782;stop-opacity:1"/><stop offset="1" style="stop-color:#1d88e0;stop-opacity:1"/></linearGradient></defs></svg>