<?xml version="1.0" encoding="UTF-8" standalone="no"?><!DOCTYPE svg PUBLIC "-//W3C//DTD SVG 1.1//EN" "http://www.w3.org/Graphics/SVG/1.1/DTD/svg11.dtd"><svg width="100%" height="100%" viewBox="0 0 230 300" version="1.1" xmlns="http://www.w3.org/2000/svg" xmlns:xlink="http://www.w3.org/1999/xlink" xml:space="preserve" xmlns:serif="http://www.serif.com/" style="fill-rule:evenodd;clip-rule:evenodd;stroke-linecap:round;stroke-linejoin:round;stroke-miterlimit:1.5;"><g><rect id="Background" x="0" y="0" width="230" height="300" style="fill:#e0e0e0;"/><path id="Plume" d="M217.799,34.781c4.595,9.799 -3.118,26.13 -15.286,44.826l-22.718,9.514l21.601,-6.397c-3.702,5.954 -14.656,20.704 -18.844,23.602c-10.301,4.311 -17.479,4.497 -24.291,4.879l-0.106,-0.016c5.974,1.404 12.543,1.618 20.723,-1.048c-3.702,5.954 -11.346,21.925 -17.065,22.67c-11.636,1.516 -19.122,-3.841 -25.873,-4.199l-1.6,1.683c10.459,4.452 20.18,4.277 27.142,4.814c-5.429,7.02 -8.718,8.712 -14.117,12.895c-4.659,3.611 -18.101,1.588 -23.838,-1.838l-0.046,-0.025c3.331,4.981 10.24,6.232 22.368,5.235c-5.067,3.352 -16.976,14.908 -21.224,15.515c-10.015,1.43 -17.925,-2.72 -21.528,-7.172l-0.879,0c4.626,9.108 20.171,10.492 26.391,10.906c-6.424,1.408 -19.202,1.297 -27.686,-8.876l-0.722,0.8c4.701,6.677 9.997,10.219 23.353,10.495c-2.879,11.529 -28.383,17.398 -37.792,2.393l-1.396,1.393c0.017,0.03 0.181,0.358 0.198,0.388c4.488,7.919 10.294,11.246 21.495,11.052c-4.555,6.908 -11.816,11.379 -20.544,11.222c-4.872,-1.176 -8.45,-2.899 -9.563,-4.005c0.868,4.485 9.463,5.987 14.741,6.828c-3.606,6.787 -11.63,4.911 -16.258,3.561c-6.786,-1.979 -8.126,-2.696 -12.443,-7.003l-0.74,1.052c3.114,5.967 8.362,10.245 17.113,15.915c-7.922,-2.028 -13.855,-5.393 -20.682,-12.162l-0.818,0.861c2.258,3.159 11.163,11.948 20.017,12.739c-3.196,5.405 -19.825,-1.483 -23.642,-2.259l10.889,6.761c-3.668,1.869 -10.477,-0.514 -16.508,-4.879c-0.143,2.515 8.363,5.181 13.259,11.346c-3.23,-2.427 -9.547,-3.629 -16.299,-4.123c7.589,3.168 7.63,3.549 9.666,5.185c-10.796,0.538 -11.376,3.858 -19.142,0.214l-0.215,-0.042c-1.353,0.66 -20.633,30.228 -20.739,32.648c-0.034,0.802 -0.492,1.825 0.104,2.657c-1.029,-0.109 -2.192,0.785 -3.397,1.989c37.984,-79.578 172.218,-161.521 206.941,-231.994c-7.662,-5.451 -22.062,3.983 -42.277,19.533c5.572,6.558 6.693,14.956 8.664,23.002c-3.138,-6.082 -6.285,-24.82 -11.019,-21.047c-1.909,1.523 -4.488,4.183 -4.722,7.921c-0.175,2.802 -1.195,11.362 -1.641,27.378l-0.243,-29.143c-10.064,8.414 -19.95,14.016 -25.076,21.075c-5.351,12.407 -6.152,27.672 -1.146,35.899c-0.163,-0.181 -0.322,-0.362 -0.476,-0.543c-5.698,-6.689 -5.674,-13.849 -4.146,-22.001c0.12,-0.638 1.912,-9.685 1.975,-10.044c-13.285,6.33 -28.793,27.451 -30.794,39.385c-1.405,8.386 3.312,20.15 6.184,23.146l0,0.268c-14.289,-11.523 -7.275,-35.817 -4.892,-36.194c0.039,-1.253 -22.99,22.068 -27.65,37.141c-3.671,11.876 -1.065,23.822 2.498,27.2l-0.474,0c-6.639,-7.853 -7.012,-18.362 -6.215,-29.731c-2.18,10.688 -4.546,22.473 0.819,35.211l-0.75,0.539c-6.948,-5.916 -3.488,-32.556 -2.658,-33.834c-4.08,5.337 -19.581,18.355 -23.927,32.907c-3.557,11.91 -1.337,22.846 2.226,26.224l-2.428,2.553l-6.967,-20.341c-2.908,-1.609 -4.887,14.956 -4.291,26.194l-3.847,-10.753c-3.022,10.543 -1.254,17.948 -0.648,23.74c42.951,-49.023 89.693,-89.183 129.184,-129.912c8.797,-9.072 19.257,-17.136 27.253,-26.45c10.833,-12.617 18.043,-26.694 27.484,-39.323Z" style="fill:none;stroke:#bdbdbd;stroke-width:2px;"/></g></svg>