<?xml version="1.0" encoding="UTF-8" standalone="no"?><!DOCTYPE svg PUBLIC "-//W3C//DTD SVG 1.1//EN" "http://www.w3.org/Graphics/SVG/1.1/DTD/svg11.dtd"><svg width="100%" height="100%" viewBox="0 0 223 252" version="1.1" xmlns="http://www.w3.org/2000/svg" xmlns:xlink="http://www.w3.org/1999/xlink" xml:space="preserve" xmlns:serif="http://www.serif.com/" style="fill-rule:evenodd;clip-rule:evenodd;stroke-linecap:round;stroke-linejoin:round;stroke-miterlimit:1.5;"><path d="M220.36,2.662c4.871,10.462 -3.305,27.901 -16.204,47.864l-24.081,10.16l22.898,-6.832c-3.924,6.358 -15.536,22.108 -19.975,25.202c-10.919,4.604 -18.528,4.803 -25.749,5.21l-0.112,-0.016c6.332,1.498 13.296,1.727 21.966,-1.12c-3.924,6.358 -12.026,23.411 -18.089,24.207c-12.335,1.619 -20.269,-4.102 -27.425,-4.483l-1.697,1.797c11.087,4.753 21.391,4.567 28.771,5.14c-5.755,7.495 -9.241,9.302 -14.964,13.769c-4.939,3.855 -19.187,1.696 -25.269,-1.962l-0.049,-0.027c3.531,5.318 10.855,6.654 23.711,5.589c-5.371,3.58 -17.994,15.919 -22.498,16.567c-10.615,1.527 -19.001,-2.904 -22.819,-7.658l-0.932,0c4.903,9.726 21.381,11.203 27.975,11.645c-6.81,1.504 -20.355,1.385 -29.348,-9.477l-0.766,0.854c4.984,7.13 10.598,10.912 24.755,11.206c-3.052,12.311 -30.087,18.578 -40.06,2.556l-1.48,1.487c0.018,0.032 0.193,0.383 0.211,0.415c4.757,8.456 10.911,12.008 22.784,11.801c-4.828,7.376 -12.525,12.15 -21.777,11.983c-5.164,-1.256 -8.956,-3.096 -10.137,-4.277c0.92,4.789 10.031,6.393 15.625,7.291c-3.821,7.247 -12.327,5.244 -17.233,3.803c-7.193,-2.114 -8.613,-2.879 -13.19,-7.478l-0.784,1.123c3.301,6.372 8.864,10.94 18.14,16.994c-8.397,-2.166 -14.686,-5.759 -21.923,-12.986l-0.868,0.918c2.395,3.374 11.834,12.759 21.219,13.604c-3.387,5.771 -21.014,-1.584 -25.061,-2.413l11.543,7.219c-3.888,1.996 -11.107,-0.548 -17.499,-5.21c-0.152,2.687 8.865,5.533 14.055,12.116c-3.424,-2.592 -10.121,-3.875 -17.277,-4.403c8.044,3.384 8.087,3.79 10.245,5.537c-11.443,0.575 -12.058,4.119 -20.291,0.228l-0.227,-0.044c-1.435,0.705 -21.872,32.277 -21.983,34.861c-0.037,0.856 -0.522,1.948 0.11,2.837c-1.091,-0.116 -2.324,0.839 -3.601,2.124c40.263,-84.973 182.553,-172.471 219.36,-247.721c-8.122,-5.822 -23.386,4.252 -44.814,20.856c5.906,7.003 7.094,15.97 9.184,24.562c-3.327,-6.495 -6.663,-26.503 -11.68,-22.474c-2.024,1.626 -4.758,4.467 -5.006,8.458c-0.185,2.992 -1.267,12.132 -1.739,29.234l-0.257,-31.119c-10.669,8.985 -21.149,14.966 -26.582,22.504c-5.672,13.248 -6.521,29.548 -1.215,38.332c-0.172,-0.193 -0.341,-0.386 -0.504,-0.579c-6.04,-7.142 -6.014,-14.788 -4.395,-23.492c0.127,-0.682 2.026,-10.342 2.093,-10.725c-14.082,6.759 -30.521,29.311 -32.641,42.055c-1.49,8.954 3.511,21.515 6.554,24.714l0,0.287c-15.146,-12.304 -7.711,-38.246 -5.185,-38.648c0.041,-1.338 -24.37,23.564 -29.309,39.66c-3.892,12.68 -1.129,25.436 2.648,29.043l-0.503,0c-7.037,-8.385 -7.433,-19.607 -6.588,-31.747c-2.311,11.413 -4.819,23.997 0.868,37.599l-0.795,0.575c-7.365,-6.317 -3.698,-34.763 -2.817,-36.128c-4.326,5.699 -20.757,19.6 -25.364,35.139c-3.77,12.717 -1.417,24.394 2.36,28.001l-2.573,2.726l-7.386,-21.72c-3.082,-1.718 -5.179,15.97 -4.548,27.97l-4.078,-11.482c-3.203,11.258 -1.329,19.165 -0.686,25.349c45.528,-52.346 95.076,-95.228 136.937,-138.719c9.324,-9.687 20.411,-18.297 28.888,-28.242c11.483,-13.473 19.125,-28.505 29.133,-41.989Z" style="fill:#bdbdbd;stroke:#212121;stroke-width:2px;"/></svg>