<?xml version="1.0" encoding="UTF-8" standalone="no"?><!DOCTYPE svg PUBLIC "-//W3C//DTD SVG 1.1//EN" "http://www.w3.org/Graphics/SVG/1.1/DTD/svg11.dtd"><svg width="100%" height="100%" viewBox="0 0 280 280" version="1.1" xmlns="http://www.w3.org/2000/svg" xmlns:xlink="http://www.w3.org/1999/xlink" xml:space="preserve" xmlns:serif="http://www.serif.com/" style="fill-rule:evenodd;clip-rule:evenodd;stroke-linecap:round;stroke-linejoin:round;stroke-miterlimit:1.5;"><rect id="Top-Left" serif:id="Top Left" x="0" y="0" width="280" height="280" style="fill:url(#_Linear1);"/><g id="Top-Left1" serif:id="Top Left"><path d="M243.347,16.97c4.871,10.463 -3.305,27.901 -16.204,47.865l-24.081,10.159l22.898,-6.831c-3.925,6.358 -15.536,22.108 -19.975,25.202c-10.919,4.604 -18.528,4.802 -25.749,5.209l-0.112,-0.016c6.332,1.499 13.295,1.727 21.966,-1.119c-3.924,6.358 -12.026,23.411 -18.089,24.207c-12.335,1.619 -20.27,-4.102 -27.425,-4.484l-1.697,1.797c11.087,4.754 21.391,4.567 28.771,5.14c-5.755,7.496 -9.241,9.303 -14.964,13.77c-4.939,3.855 -19.187,1.695 -25.269,-1.962l-0.049,-0.028c3.531,5.319 10.855,6.655 23.71,5.59c-5.37,3.58 -17.993,15.919 -22.497,16.567c-10.616,1.527 -19.001,-2.905 -22.819,-7.658l-0.932,0c4.903,9.725 21.381,11.203 27.974,11.645c-6.809,1.504 -20.354,1.385 -29.348,-9.477l-0.765,0.854c4.984,7.13 10.597,10.912 24.755,11.206c-3.052,12.311 -30.087,18.578 -40.06,2.556l-1.48,1.486c0.018,0.033 0.192,0.384 0.21,0.416c4.758,8.455 10.912,12.008 22.785,11.801c-4.828,7.375 -12.525,12.15 -21.777,11.982c-5.164,-1.255 -8.957,-3.095 -10.137,-4.276c0.92,4.789 10.031,6.393 15.625,7.29c-3.821,7.247 -12.327,5.245 -17.233,3.803c-7.193,-2.113 -8.614,-2.878 -13.19,-7.478l-0.784,1.123c3.3,6.373 8.864,10.941 18.14,16.995c-8.397,-2.166 -14.686,-5.759 -21.923,-12.987l-0.868,0.919c2.395,3.373 11.834,12.759 21.219,13.603c-3.387,5.772 -21.015,-1.584 -25.061,-2.412l11.543,7.219c-3.888,1.996 -11.107,-0.548 -17.499,-5.21c-0.152,2.686 8.865,5.533 14.054,12.116c-3.423,-2.592 -10.12,-3.875 -17.276,-4.403c8.044,3.383 8.087,3.79 10.245,5.536c-11.443,0.576 -12.058,4.12 -20.291,0.229l-0.228,-0.045c-1.434,0.705 -21.871,32.278 -21.982,34.862c-0.037,0.856 -0.522,1.948 0.11,2.837c-1.092,-0.117 -2.325,0.838 -3.601,2.123c40.263,-84.973 182.553,-172.471 219.36,-247.721c-8.122,-5.821 -23.386,4.253 -44.814,20.857c5.906,7.002 7.094,15.97 9.183,24.562c-3.326,-6.495 -6.662,-26.503 -11.679,-22.474c-2.024,1.625 -4.758,4.467 -5.006,8.458c-0.185,2.992 -1.267,12.132 -1.739,29.233l-0.258,-31.118c-10.668,8.984 -21.148,14.966 -26.581,22.503c-5.672,13.249 -6.521,29.549 -1.215,38.333c-0.173,-0.193 -0.341,-0.386 -0.505,-0.58c-6.039,-7.141 -6.014,-14.787 -4.394,-23.492c0.127,-0.681 2.026,-10.341 2.093,-10.724c-14.082,6.759 -30.521,29.311 -32.641,42.055c-1.49,8.954 3.511,21.515 6.554,24.714l0,0.286c-15.146,-12.303 -7.712,-38.245 -5.185,-38.647c0.041,-1.338 -24.37,23.564 -29.31,39.659c-3.891,12.681 -1.128,25.437 2.648,29.044l-0.502,0c-7.037,-8.385 -7.433,-19.607 -6.588,-31.747c-2.311,11.413 -4.819,23.997 0.868,37.598l-0.795,0.576c-7.365,-6.318 -3.698,-34.763 -2.817,-36.128c-4.326,5.699 -20.757,19.6 -25.364,35.138c-3.77,12.717 -1.417,24.395 2.36,28.002l-2.574,2.726l-7.385,-21.72c-3.082,-1.718 -5.18,15.97 -4.548,27.97l-4.078,-11.482c-3.203,11.258 -1.33,19.165 -0.687,25.349c45.529,-52.346 95.076,-95.228 136.937,-138.719c9.325,-9.688 20.412,-18.298 28.889,-28.243c11.482,-13.473 19.125,-28.504 29.133,-41.989Z" style="fill:#fff;stroke:#053782;stroke-width:2px;"/></g><defs><linearGradient id="_Linear1" x1="0" y1="0" x2="1" y2="0" gradientUnits="userSpaceOnUse" gradientTransform="matrix(280,0,0,280,0,140)"><stop offset="0" style="stop-color:#e54b4b;stop-opacity:1"/><stop offset="1" style="stop-color:#fa7921;stop-opacity:1"/></linearGradient></defs></svg>