<svg xmlns="http://www.w3.org/2000/svg" fill-rule="evenodd" stroke-linecap="round" stroke-linejoin="round" stroke-miterlimit="1.5" clip-rule="evenodd" viewBox="0 0 450 508"><path fill="#1d88e0" stroke="#053782" stroke-width="2" d="M445.89 4.37c9.879 21.219-6.702 56.587-32.863 97.076l-48.839 20.604 46.44-13.855c-7.96 12.894-31.51 44.837-40.512 51.113-22.146 9.337-37.579 9.74-52.222 10.566l-.228-.033c12.841 3.039 26.965 3.503 44.55-2.27-7.959 12.894-24.391 47.48-36.687 49.094-25.016 3.284-41.109-8.318-55.622-9.093l-3.44 3.645c22.485 9.64 43.383 9.263 58.351 10.425-11.673 15.201-18.743 18.866-30.349 27.926-10.017 7.819-38.915 3.439-51.249-3.98l-.1-.055c7.162 10.786 22.015 13.495 48.088 11.336-10.893 7.26-36.494 32.286-45.628 33.6-21.529 3.097-38.536-5.89-46.28-15.531h-1.89c9.944 19.724 43.363 22.72 56.736 23.617-13.81 3.05-41.281 2.809-59.521-19.22l-1.552 1.732c10.106 14.46 21.492 22.13 50.206 22.727-6.191 24.969-61.021 37.678-81.247 5.184l-3.001 3.015c.036.065.389.777.426.842 9.648 17.149 22.13 24.353 46.209 23.934-9.791 14.959-25.401 24.642-44.166 24.302-10.474-2.546-18.165-6.278-20.559-8.673 1.867 9.713 20.345 12.966 31.69 14.786-7.751 14.698-25.001 10.636-34.951 7.713-14.588-4.286-17.47-5.838-26.75-15.166l-1.591 2.277c6.694 12.924 17.977 22.189 36.79 34.467-17.03-4.393-29.785-11.679-44.463-26.338L99.907 372c4.855 6.842 23.999 25.877 43.034 27.589-6.87 11.706-42.62-3.212-50.827-4.893l23.41 14.642c-7.886 4.048-22.525-1.112-35.49-10.567-.308 5.449 17.979 11.221 28.505 24.573-6.944-5.257-20.526-7.858-35.04-8.93 16.315 6.862 16.402 7.687 20.779 11.229-23.209 1.167-24.456 8.355-41.152.463l-.462-.09c-2.909 1.43-44.358 65.462-44.584 70.703-.075 1.737-1.058 3.952.223 5.755-2.213-.237-4.714 1.7-7.303 4.306C82.659 334.444 371.241 156.987 445.89 4.37c-16.472-11.806-47.429 8.625-90.888 42.3 11.979 14.202 14.388 32.389 18.625 49.815-6.747-13.173-13.512-53.752-23.688-45.58-4.104 3.296-9.65 9.059-10.151 17.153-.376 6.068-2.571 24.606-3.528 59.289l-.522-63.112c-21.637 18.222-42.892 30.354-53.911 45.64-11.503 26.87-13.225 59.929-2.464 77.744-.35-.391-.691-.783-1.023-1.176-12.25-14.484-12.198-29.991-8.913-47.645.257-1.382 4.109-20.974 4.245-21.751-28.561 13.709-61.9 59.448-66.201 85.293-3.021 18.16 7.121 43.636 13.294 50.124v.581c-30.719-24.953-15.641-77.566-10.517-78.382.083-2.713-49.425 47.791-59.443 80.434-7.893 25.718-2.289 51.589 5.37 58.905h-1.019c-14.272-17.007-15.075-39.766-13.361-64.387-4.687 23.147-9.773 48.668 1.76 76.254l-1.613 1.167c-14.936-12.813-7.498-70.503-5.712-73.272-8.773 11.558-42.098 39.751-51.441 71.265-7.647 25.792-2.874 49.475 4.786 56.791l-5.22 5.529-14.978-44.051c-6.252-3.484-10.505 32.389-9.224 56.727l-8.271-23.288c-6.496 22.833-2.696 38.869-1.393 51.412 92.339-106.165 192.827-193.136 277.726-281.34 18.912-19.648 41.398-37.11 58.589-57.28 23.289-27.325 38.79-57.811 59.086-85.159z"/></svg>